<?xml version="1.0" encoding="utf-8"?>
<!-- Generator: Adobe Illustrator 26.2.1, SVG Export Plug-In . SVG Version: 6.00 Build 0)  -->
<svg version="1.1" id="Capa_1" xmlns="http://www.w3.org/2000/svg" xmlns:xlink="http://www.w3.org/1999/xlink" x="0px" y="0px"
	 viewBox="0 0 2053 1829" style="enable-background:new 0 0 2053 1829;" xml:space="preserve">
<style type="text/css">
	.st0{fill-rule:evenodd;clip-rule:evenodd;fill:#59595B;}
	.st1{fill:#5480C1;}
	.st2{fill:#304269;}
</style>
<g>
	<path class="st0" d="M1299.8,625.4c-100.9,120.9-188.3,157.5-231,168.7v-12.3C1207.6,742.3,1292,597,1292,597
		c95,37.5,188,14.1,188,14.1c169.4-43.5,163.5-237.6,163.5-237.6c-74.7,237.7-337.2,198.2-353.1,195.7c-15.7-2.5-20.6,10-20.6,10
		l-8.2,17.1c-61.1,119-146.9,165.8-192.8,183.1v-12.1c113.9-48.9,180.7-183,187.2-199.5c7.1-18.3,18-16.4,18-16.4
		c138.1,13,223-29.9,223-29.9c196.9-100.5,94.3-305.1,94.3-305.1c7.5,279.9-301.3,298.2-327.5,300.4c-26.1,2.2-30,30-30,30
		c-39.1,130.8-117.7,191.1-164.9,216.6v-95.2c26.8-10.4,45.7-36.3,45.7-66.7c0-46.1-41.1-71.3-80.4-71.6c-0.1,0-0.2,0-0.3,0
		c-0.1,0-0.2,0-0.3,0c-39.3,0.3-80.4,25.5-80.4,71.6c0,30.4,18.9,56.3,45.7,66.7v95.2c-47.3-25.5-125.9-85.9-165-216.6
		c0,0-3.9-27.8-30-30c-26.1-2.2-335-20.5-327.5-300.4c0,0-102.7,204.7,94.2,305.1c0,0,84.9,43,223.1,29.9c0,0,10.9-1.9,18,16.4
		c6.4,16.6,73.1,150.6,187.2,199.5v12.1c-45.9-17.4-131.8-64.2-192.8-183.1l-8.2-17.1c0,0-5-12.5-20.7-10
		c-15.8,2.5-278.4,42-353.1-195.7v5.1c0.5,30.8,10.4,193.2,163.5,232.5c0,0,93,23.4,188-14.1c0,0,84.5,145.3,223.2,184.8v12.3
		c-42.6-11.2-130-47.8-230.9-168.8c0,0-185.5,62.3-305.4-62.2c2.4,4.6,4.6,9.2,7,13.7c16.4,30.5,34.4,60.9,53.7,90.8
		c52.4,34.4,127.9,43.9,234.5-16.5c0,0,142.4,127.7,241.3,145.7v191.9c-1.3-0.1-2.5-0.3-3.7-0.3c-77.4-88.4-67.2-115.8-65.7-118.7
		c5.2-10.1,31.9-12.5,45.4-11.1c12.9,1.5,18.3-7.9,19.8-20.9c1.5-13.1-37.4-30.7-50.5-32.2c-7.1-0.8-34.9-0.8-57.1,42.6
		c-18.3,35.6,0.4,85.6,58.6,155.7c-21,10.1-42.2,26.5-47.4,51.6c-5.9,28.7,10.2,58.2,49.1,89.6c-14.6,10.7-28.4,26.2-30.5,46.9
		c-2.5,23.1,10,45.3,36.8,66.4c-9,10-17.5,23.8-18.4,41.5c-1.3,26.1,14.3,50.6,46.4,72.9c4.1,2.9,8.9,4.2,13.6,4.2
		c1.3,0,2.4-0.2,3.6-0.4v30c0,0.8,0.1,1.6,0.3,2.3l18.1,64.3c1,3.7,4.4,6.3,8.2,6.3h16.9c3.9,0,7.3-2.6,8.3-6.3l18.1-64.3
		c0.2-0.8,0.3-1.5,0.3-2.3v-30c1.2,0.2,2.4,0.4,3.6,0.4c4.7,0,9.4-1.4,13.6-4.2c32.1-22.3,47.6-46.9,46.3-72.9
		c-0.9-17.7-9.4-31.6-18.4-41.5c26.9-21.1,39.3-43.4,36.8-66.4c-2.2-20.6-15.9-36.1-30.5-46.9c38.7-31.4,54.9-60.8,49-89.6
		c-5.1-25.1-26.4-41.5-47.4-51.6c58.2-70.1,76.8-120.1,58.6-155.7c-22.2-43.4-49.9-43.4-57.1-42.6c-13.1,1.5-52,19.1-50.5,32.2
		c1.4,13.1,6.8,22.4,19.8,20.9c13.5-1.5,40.2,0.9,45.4,11.1c1.5,3,11.8,30.3-65.7,118.7c-1.3,0-2.5,0.1-3.7,0.3V797
		c98.8-18,241.2-145.7,241.2-145.7c106.6,60.4,182,50.9,234.5,16.5c19.3-29.9,37.3-60.3,53.7-90.8c2.4-4.5,4.6-9.2,7-13.7
		C1485.4,687.7,1299.8,625.4,1299.8,625.4L1299.8,625.4z M1304.1,731.8c-97.8,43.1-154.7,65.9-154.7,65.9l137.5-31.5
		c15.4,84.3,86.5,76.5,138.9,58.4c6.1-6.8,12.2-13.6,18.3-20.7C1365,803.8,1304.1,731.8,1304.1,731.8L1304.1,731.8z M1308,676.3
		c-65.9,66-189.2,117.5-189.2,117.5c36.3-6.7,192-82.2,192-82.2c55.4,60.9,106,78,149.2,73.1c17.8-21.7,35.2-44.2,51.6-67.5
		C1408.8,738.9,1308,676.3,1308,676.3L1308,676.3z M1268.8,787.2L1155.1,813c77.9,36.5,169.6,30.1,169.6,30.1
		C1273.6,833,1268.8,787.2,1268.8,787.2L1268.8,787.2z M781.5,766.2L919,797.7c0,0-57-22.8-154.7-65.9c0,0-60.9,72.1-140,72.1
		c6,7,12.1,13.8,18.3,20.7C694.9,842.7,766.1,850.4,781.5,766.2L781.5,766.2z M757.6,711.7c0,0,155.7,75.5,192.1,82.2
		c0,0-123.3-51.6-189.2-117.5c0,0-100.8,62.6-203.7,41c16.5,23.2,33.8,45.7,51.7,67.5C651.6,789.7,702.2,772.6,757.6,711.7
		L757.6,711.7z M799.6,787.2c0,0-4.8,45.8-55.9,55.9c0,0,91.7,6.4,169.6-30.1L799.6,787.2L799.6,787.2z M998.8,1326.2
		c-10.7-9-16.4-17.5-16.1-23.9c0.4-9.1,12.4-18.1,16.1-20.3V1326.2L998.8,1326.2z M998.8,1231.9c-28.4-17.4-35.3-30.1-34.7-34.9
		c0.9-8.9,20.9-21.3,34.7-26.2V1231.9L998.8,1231.9z M998.8,1123.9c-56.2-37.8-54.4-56.7-54-58.7c3-19.2,49.9-27.1,54-28V1123.9
		L998.8,1123.9z M1068.8,1326.2V1282c3.6,2.2,15.6,11.2,16.1,20.3C1085.2,1308.7,1079.5,1317.2,1068.8,1326.2L1068.8,1326.2z
		 M1068.8,1231.9v-61.1c13.8,5,33.7,17.3,34.7,26.2C1104,1201.8,1097.3,1214.5,1068.8,1231.9L1068.8,1231.9z M1122.7,1065.2
		c0.4,2,2.2,20.9-53.9,58.7v-86.7C1072.9,1038.1,1119.8,1046,1122.7,1065.2L1122.7,1065.2z"/>
</g>
<g>
	<g>
		<path class="st1" d="M196,1315.8c-51.1,0-86.4-10.4-107.8-31.8c-20.7-20.7-32.5-47.1-35.2-78.5c-0.4-5,1.2-10.1,4.5-13.9
			c3.3-3.8,8-6.2,13.1-6.5l49.5-3.1c-10.9-5.2-20-11.1-27.4-17.5C73,1147.4,63,1125.3,63,1098.8c0-17.4,5-33.9,15-49.2
			c10-15.3,24.8-27.3,44.2-35.8c18.6-8.1,42.5-12.1,73.3-12.1c38.5,0,67.6,7.4,89,22.5c22.4,15.8,35.7,40.6,39.8,73.7
			c0.6,5.2-0.9,10.4-4.2,14.4c-3.3,4-8.2,6.4-13.4,6.7l-26.4,1.5c17.7,9.4,31,21.3,39.5,35.6c8.9,14.7,13.4,31.3,13.4,49.3
			c0,20.8-5.8,40.2-17.3,57.7c-11.5,17.5-27.6,30.9-47.9,39.8C248.6,1311.5,224.4,1315.8,196,1315.8z M93.9,1221.5
			c3.9,14,10.8,25.8,20.9,35.9c13.6,13.6,41.6,20.7,81.1,20.7c23.2,0,42.3-3.2,56.8-9.6c13.7-6,24.1-14.5,31.6-26
			c7.5-11.4,11.1-23.6,11.1-37.1c0-11.2-2.6-21-8-29.8c-5.2-8.7-14.2-16.3-26.5-22.6c-14.1-7.2-38.7-14.6-73-22
			c-18.5-3.8-29.4-8.1-36.1-14.1c-10.3-8.8-12.5-18.8-12.5-25.7c0-11.5,4.9-21.6,14-29.3c8.3-7,19.7-10.5,33.8-10.5
			c16.1,0,29.4,4.2,39.4,12.5c6.5,5.3,11.5,12.4,15,21.1l40.8-2.4c-4.2-12.1-10.7-21.3-19.8-27.8c-14.6-10.3-37.2-15.6-67.2-15.6
			c-25.1,0-44.7,3-58.2,8.9c-12.7,5.5-21.7,12.7-27.7,21.8c-6,9.2-8.9,18.5-8.9,28.7c0,15.5,5.4,27.4,16.8,37.4
			c13,11.4,36.3,20.9,69.3,28.3c26.2,5.8,41.9,11.9,50.8,19.9c12.7,11.4,15.4,24,15.4,32.6c0,8.9-2.8,22-16.1,33.5
			c-9.9,8.6-23.2,12.9-39.6,12.9c-21.5,0-39.2-8.1-51.3-23.4c-4.5-5.8-8.1-12.8-10.6-21L93.9,1221.5z M169.4,1199.1
			c1.6,10,4.2,15.1,6.2,17.6c3.3,4.2,8.7,9,21.6,9c4.9,0,11.4-0.6,14.9-3.7c3.1-2.7,3.1-4.2,3.1-5c0-0.6,0-2-2.9-4.6
			c-0.2-0.2-6-5-33.7-11.1C175.5,1200.5,172.4,1199.8,169.4,1199.1z M179.8,1089.9c2.8,1,7.8,2.5,16,4.3c3.3,0.7,6.4,1.4,9.5,2.1
			c-0.8-1.4-1.7-2.5-2.7-3.3c-3.9-3.2-10.6-3.9-15.5-3.9C183.8,1089.2,181.4,1089.5,179.8,1089.9z"/>
	</g>
	<g>
		<path class="st1" d="M442,1311.3h-82.8c-10.4,0-18.8-8.4-18.8-18.8v-267.3c0-10.4,8.4-18.8,18.8-18.8H442
			c10.4,0,18.8,8.4,18.8,18.8v267.3C460.8,1302.8,452.4,1311.3,442,1311.3z M378,1273.6h45.1v-229.7H378V1273.6z"/>
	</g>
	<g>
		<path class="st1" d="M632.2,1315.8c-32.9,0-60.8-5.5-83.1-16.3c-23-11.2-41.9-29-56-52.9c-14-23.6-21-53.1-21-87.6
			c0-48.6,14.1-87.4,42-115.3c27.9-27.9,66.5-42,114.9-42c49.4,0,88.5,13.9,116.1,41.3c27.7,27.4,41.7,65.7,41.7,113.8
			c0,34.2-6,63-17.9,85.6c-12.2,23.2-30,41.5-53.1,54.4C693,1309.4,665,1315.8,632.2,1315.8z M628.9,1039.4
			c-38.6,0-67.4,10.1-88.2,31c-20.8,20.8-31,49.8-31,88.6c0,27.7,5.3,50.7,15.8,68.5c10.5,17.7,23.6,30.2,40.1,38.2
			c17.1,8.3,39.5,12.5,66.6,12.5c26.3,0,48.2-4.8,65.1-14.3c16.8-9.4,29.3-22.2,38.1-39c9-17.2,13.6-40.1,13.6-68.1
			c0-38.2-10-66.6-30.5-87C697.9,1049.3,668.6,1039.4,628.9,1039.4z M629.4,1254c-22.6,0-41.8-8.4-55.3-24.3
			c-13.1-15.5-19.5-38.5-19.5-70.4c0-32.2,6.4-55.3,19.7-70.8c13.6-15.9,32.4-24.3,54.4-24.3c23,0,41.6,8,55.5,23.9
			c13.4,15.3,19.9,37.4,19.9,67.6c0,34.8-6.2,59.1-19,74.3C671.6,1245.9,652.9,1254,629.4,1254z M628.7,1101.9
			c-11.1,0-19.3,3.5-25.8,11.1c-4.8,5.7-10.6,18.3-10.6,46.3c0,27.7,5.7,40.3,10.6,46c6.4,7.5,14.9,11.1,26.6,11.1
			c16,0,23-6.1,26.8-10.6c3.8-4.5,10.2-17,10.2-50.1c0-20.1-3.7-34.9-10.6-42.8C649.3,1105.4,640.7,1101.9,628.7,1101.9z"/>
	</g>
	<g>
		<path class="st1" d="M1112.1,1311.3h-67.7c-10.4,0-18.8-8.4-18.8-18.8v-54.2l-15,58.9c-2.1,8.3-9.6,14.2-18.2,14.2h-61.2
			c-8.6,0-16.1-5.8-18.2-14.2l-14.9-58.6v53.9c0,10.4-8.4,18.8-18.8,18.8h-67.7c-10.4,0-18.8-8.4-18.8-18.8v-267.3
			c0-10.4,8.4-18.8,18.8-18.8h108.6c8.6,0,16.1,5.8,18.2,14.1l23.6,91.6l23.4-91.6c2.1-8.3,9.6-14.2,18.2-14.2h108.6
			c10.4,0,18.8,8.4,18.8,18.8v267.3C1130.9,1302.8,1122.5,1311.3,1112.1,1311.3z M1063.3,1273.6h30v-229.7h-75.1l-38,148.5
			c-2.1,8.3-9.6,14.2-18.2,14.2c0,0,0,0,0,0c-8.6,0-16.1-5.8-18.2-14.1l-38.3-148.5h-75.2v229.7h30v-185c0-9.5,7.1-17.5,16.5-18.7
			c9.4-1.2,18.2,4.8,20.6,14l48.4,189.7h32l48.5-189.7c2.4-9.2,11.2-15.2,20.6-14c9.4,1.2,16.5,9.2,16.5,18.7V1273.6z"/>
	</g>
	<g>
		<path class="st1" d="M1390,1311.3h-225.4c-10.4,0-18.8-8.4-18.8-18.8v-267.3c0-10.4,8.4-18.8,18.8-18.8H1386
			c10.4,0,18.8,8.4,18.8,18.8v57.1c0,10.4-8.4,18.8-18.8,18.8h-119.8v4.8H1376c10.4,0,18.8,8.4,18.8,18.8v54.5
			c0,10.4-8.4,18.8-18.8,18.8h-109.7v15H1390c10.4,0,18.8,8.4,18.8,18.8v60.5C1408.9,1302.8,1400.4,1311.3,1390,1311.3z
			 M1183.5,1273.6h187.7v-22.9h-123.8c-10.4,0-18.8-8.4-18.8-18.8v-52.7c0-10.4,8.4-18.8,18.8-18.8h109.7v-16.9h-109.7
			c-10.4,0-18.8-8.4-18.8-18.8v-42.5c0-10.4,8.4-18.8,18.8-18.8h119.8v-19.4h-183.7V1273.6z"/>
	</g>
	<g>
		<path class="st1" d="M1558.3,1311.3h-122.7c-10.4,0-18.8-8.4-18.8-18.8v-267.3c0-10.4,8.4-18.8,18.8-18.8h122.7
			c27.1,0,48.8,3.7,66.2,11.4c17.6,7.8,32.5,19.2,44.1,33.8c11.3,14.3,19.6,31,24.6,49.7c4.8,17.8,7.2,36.9,7.2,56.7
			c0,31.3-3.7,55.4-11.2,73.7c-7.5,18.2-18.2,33.8-31.7,46.2c-13.8,12.7-28.9,21.3-45.1,25.6
			C1592.8,1308.6,1574.6,1311.3,1558.3,1311.3z M1454.4,1273.6h103.9c13,0,27.9-2.2,44.4-6.6c10.4-2.8,20-8.3,29.3-16.9
			c9.5-8.7,17-19.8,22.4-32.9c5.5-13.4,8.3-33.3,8.3-59.3c0-16.5-2-32.3-5.9-46.9c-3.7-13.7-9.7-25.8-17.7-36
			c-7.9-9.9-17.6-17.4-29.8-22.7c-12.4-5.5-29.6-8.2-51-8.2h-103.9V1273.6z M1538.4,1250.5h-20.2c-10.4,0-18.8-8.4-18.8-18.8v-146.1
			c0-10.4,8.4-18.8,18.8-18.8h20.6c26.9,0,47.1,7.4,60.1,22c12.5,14.2,18.6,37.3,18.6,70.6c0,24.2-2.5,41.9-7.8,53.9
			c-5.9,13.5-14.5,23.4-25.7,29.2C1573.8,1248,1559.3,1250.5,1538.4,1250.5z M1537,1212.9h1.4c19.7,0,26.5-2.7,28.1-3.6
			c3.4-1.8,6.3-5.4,8.6-10.9c1.7-4,4.7-14.4,4.7-38.9c0-31.9-6.4-42.6-9.1-45.7c-6.8-7.7-21.1-9.3-31.8-9.3h-1.8V1212.9z"/>
	</g>
	<g>
		<path class="st1" d="M1981.2,1311.3h-83c-10.4,0-18.8-8.4-18.8-18.8v-89.3h-52.6v89.3c0,10.4-8.4,18.8-18.8,18.8h-82.6
			c-10.4,0-18.8-8.4-18.8-18.8v-267.3c0-10.4,8.4-18.8,18.8-18.8h82.6c10.4,0,18.8,8.4,18.8,18.8v74.7h52.6v-74.7
			c0-10.4,8.4-18.8,18.8-18.8h83c10.4,0,18.8,8.4,18.8,18.8v267.3C2000,1302.8,1991.6,1311.3,1981.2,1311.3z M1917.1,1273.6h45.3
			v-229.7h-45.3v74.7c0,10.4-8.4,18.8-18.8,18.8H1808c-10.4,0-18.8-8.4-18.8-18.8v-74.7h-44.9v229.7h44.9v-89.3
			c0-10.4,8.4-18.8,18.8-18.8h90.3c10.4,0,18.8,8.4,18.8,18.8V1273.6z"/>
	</g>
</g>
<g>
	<g>
		<path class="st2" d="M71.8,1204l78.6-4.9c1.7,12.8,5.2,22.5,10.4,29.2c8.5,10.8,20.7,16.2,36.5,16.2c11.8,0,20.9-2.8,27.3-8.3
			c6.4-5.5,9.6-11.9,9.6-19.2c0-6.9-3-13.1-9.1-18.6c-6.1-5.5-20.2-10.6-42.3-15.5c-36.2-8.1-62.1-19-77.5-32.5
			c-15.6-13.5-23.3-30.7-23.3-51.6c0-13.7,4-26.7,11.9-38.9c8-12.2,19.9-21.8,35.9-28.8c16-7,37.9-10.5,65.7-10.5
			c34.2,0,60.2,6.4,78.1,19.1c17.9,12.7,28.6,32.9,32,60.6l-77.9,4.6c-2.1-12-6.4-20.8-13-26.3c-6.6-5.5-15.8-8.2-27.4-8.2
			c-9.6,0-16.8,2-21.7,6.1c-4.9,4.1-7.3,9-7.3,14.9c0,4.3,2,8.1,6,11.5c3.9,3.5,13.1,6.8,27.7,9.8c36.1,7.8,62,15.7,77.6,23.6
			c15.6,8,27,17.8,34.1,29.6c7.1,11.8,10.7,25,10.7,39.6c0,17.1-4.7,32.9-14.2,47.4c-9.5,14.5-22.7,25.4-39.8,32.9
			S221.9,1297,196,1297c-45.5,0-76.9-8.8-94.5-26.3S74.1,1231,71.8,1204z"/>
	</g>
	<g>
		<path class="st2" d="M359.2,1025.1H442v267.3h-82.8V1025.1z"/>
	</g>
	<g>
		<path class="st2" d="M490.8,1158.9c0-43.6,12.2-77.6,36.5-101.9c24.3-24.3,58.2-36.5,101.6-36.5c44.5,0,78.8,11.9,102.8,35.8
			c24.1,23.9,36.1,57.3,36.1,100.4c0,31.2-5.3,56.9-15.8,76.9c-10.5,20-25.7,35.6-45.6,46.7c-19.9,11.1-44.6,16.7-74.3,16.7
			c-30.1,0-55.1-4.8-74.9-14.4c-19.8-9.6-35.8-24.8-48-45.6C497,1216.2,490.8,1190.2,490.8,1158.9z M573.4,1159.3
			c0,27,5,46.4,15,58.2c10,11.8,23.7,17.7,40.9,17.7c17.7,0,31.5-5.8,41.2-17.3c9.7-11.5,14.6-32.3,14.6-62.2
			c0-25.2-5.1-43.6-15.2-55.2c-10.2-11.6-23.9-17.4-41.3-17.4c-16.7,0-30,5.9-40.1,17.7C578.5,1112.6,573.4,1132.1,573.4,1159.3z"/>
	</g>
	<g>
		<path class="st2" d="M811.4,1025.1h108.6l41.9,162.7l41.6-162.7h108.6v267.3h-67.7v-203.9l-52.1,203.9h-61.2l-52-203.9v203.9
			h-67.7V1025.1z"/>
	</g>
	<g>
		<path class="st2" d="M1164.6,1025.1H1386v57.1h-138.6v42.5H1376v54.5h-128.6v52.7H1390v60.5h-225.4V1025.1z"/>
	</g>
	<g>
		<path class="st2" d="M1435.6,1025.1h122.7c24.2,0,43.7,3.3,58.6,9.8c14.9,6.6,27.2,16,36.9,28.3c9.7,12.3,16.8,26.6,21.2,42.9
			c4.4,16.3,6.6,33.6,6.6,51.8c0,28.6-3.3,50.7-9.8,66.5c-6.5,15.7-15.5,28.9-27.1,39.6c-11.6,10.6-24,17.7-37.2,21.2
			c-18.1,4.9-34.5,7.3-49.2,7.3h-122.7V1025.1z M1518.2,1085.6v146.1h20.2c17.3,0,29.5-1.9,36.8-5.7c7.3-3.8,13-10.5,17.1-20.1
			c4.1-9.5,6.2-25,6.2-46.4c0-28.3-4.6-47.7-13.9-58.2c-9.2-10.5-24.6-15.7-46-15.7H1518.2z"/>
	</g>
	<g>
		<path class="st2" d="M1725.4,1025.1h82.6v93.5h90.3v-93.5h83v267.3h-83v-108.1H1808v108.1h-82.6V1025.1z"/>
	</g>
</g>
</svg>
